<svg id="canvas" height="auto" xmlns="http://www.w3.org/2000/svg" version="1.1" xmlns:xlink="http://www.w3.org/1999/xlink" viewBox="0 0 1520 357" fill="#222222" width="auto" style="width: auto; height: auto;"><rect width="1520" height="357" fill="#222222"/><g filter="url(#SvgjsFilter1081)"><line x1="1540.6806325252344" y1="178.5" x2="760" y2="178.5" stroke-width="16" stroke="#0a4e42ff"/><line x1="1534.5247325597707" y1="276.345228055414" x2="760" y2="178.5" stroke-width="16" stroke="#10816dff"/><line x1="1516.1541148831907" y1="372.647378414488" x2="760" y2="178.5" stroke-width="16" stroke="#17b498ff"/><line x1="1485.8584951103298" y1="465.8877086379434" x2="760" y2="178.5" stroke-width="16" stroke="#1ee7c3ff"/><line x1="1444.1156532627315" y1="554.5957630190828" x2="760" y2="178.5" stroke-width="16" stroke="#0a4e42ff"/><line x1="1391.5838988922978" y1="637.3725625486925" x2="760" y2="178.5" stroke-width="16" stroke="#10816dff"/><line x1="1329.0916891463994" y1="712.9126676497274" x2="760" y2="178.5" stroke-width="16" stroke="#17b498ff"/><line x1="1257.6245635037656" y1="780.0247657392727" x2="760" y2="178.5" stroke-width="16" stroke="#1ee7c3ff"/><line x1="1178.3096012281721" y1="837.6504589396321" x2="760" y2="178.5" stroke-width="16" stroke="#0a4e42ff"/><line x1="1092.3976466551671" y1="884.8809556451156" x2="760" y2="178.5" stroke-width="16" stroke="#10816dff"/><line x1="1001.2435826296808" y1="920.9714027085463" x2="760" y2="178.5" stroke-width="16" stroke="#17b498ff"/><line x1="906.2849631941933" y1="945.3526322203462" x2="760" y2="178.5" stroke-width="16" stroke="#1ee7c3ff"/><line x1="809.0193425027323" y1="957.6401376264733" x2="760" y2="178.5" stroke-width="16" stroke="#0a4e42ff"/><line x1="710.9806574972675" y1="957.6401376264733" x2="760" y2="178.5" stroke-width="16" stroke="#10816dff"/><line x1="613.7150368058064" y1="945.3526322203461" x2="760" y2="178.5" stroke-width="16" stroke="#17b498ff"/><line x1="518.7564173703191" y1="920.9714027085463" x2="760" y2="178.5" stroke-width="16" stroke="#1ee7c3ff"/><line x1="427.60235334483286" y1="884.8809556451155" x2="760" y2="178.5" stroke-width="16" stroke="#0a4e42ff"/><line x1="341.69039877182763" y1="837.650458939632" x2="760" y2="178.5" stroke-width="16" stroke="#10816dff"/><line x1="262.3754364962344" y1="780.0247657392727" x2="760" y2="178.5" stroke-width="16" stroke="#17b498ff"/><line x1="190.90831085360037" y1="712.9126676497272" x2="760" y2="178.5" stroke-width="16" stroke="#1ee7c3ff"/><line x1="128.41610110770216" y1="637.3725625486925" x2="760" y2="178.5" stroke-width="16" stroke="#0a4e42ff"/><line x1="75.8843467372684" y1="554.5957630190826" x2="760" y2="178.5" stroke-width="16" stroke="#10816dff"/><line x1="34.14150488967016" y1="465.8877086379432" x2="760" y2="178.5" stroke-width="16" stroke="#17b498ff"/><line x1="3.8458851168093133" y1="372.647378414488" x2="760" y2="178.5" stroke-width="16" stroke="#1ee7c3ff"/><line x1="-14.524732559770541" y1="276.3452280554138" x2="760" y2="178.5" stroke-width="16" stroke="#0a4e42ff"/><line x1="-20.680632525234387" y1="178.49999999999974" x2="760" y2="178.5" stroke-width="16" stroke="#10816dff"/><line x1="-14.524732559770541" y1="80.65477194458599" x2="760" y2="178.5" stroke-width="16" stroke="#17b498ff"/><line x1="3.8458851168093133" y1="-15.647378414488173" x2="760" y2="178.5" stroke-width="16" stroke="#1ee7c3ff"/><line x1="34.14150488967039" y1="-108.8877086379436" x2="760" y2="178.5" stroke-width="16" stroke="#0a4e42ff"/><line x1="75.88434673726852" y1="-197.59576301908277" x2="760" y2="178.5" stroke-width="16" stroke="#10816dff"/><line x1="128.41610110770216" y1="-280.3725625486926" x2="760" y2="178.5" stroke-width="16" stroke="#17b498ff"/><line x1="190.90831085360048" y1="-355.9126676497274" x2="760" y2="178.5" stroke-width="16" stroke="#1ee7c3ff"/><line x1="262.37543649623456" y1="-423.02476573927277" x2="760" y2="178.5" stroke-width="16" stroke="#0a4e42ff"/><line x1="341.6903987718281" y1="-480.65045893963224" x2="760" y2="178.5" stroke-width="16" stroke="#10816dff"/><line x1="427.60235334483326" y1="-527.8809556451158" x2="760" y2="178.5" stroke-width="16" stroke="#17b498ff"/><line x1="518.7564173703191" y1="-563.9714027085463" x2="760" y2="178.5" stroke-width="16" stroke="#1ee7c3ff"/><line x1="613.7150368058066" y1="-588.3526322203462" x2="760" y2="178.5" stroke-width="16" stroke="#0a4e42ff"/><line x1="710.9806574972677" y1="-600.6401376264733" x2="760" y2="178.5" stroke-width="16" stroke="#10816dff"/><line x1="809.0193425027327" y1="-600.6401376264733" x2="760" y2="178.5" stroke-width="16" stroke="#17b498ff"/><line x1="906.2849631941938" y1="-588.3526322203461" x2="760" y2="178.5" stroke-width="16" stroke="#1ee7c3ff"/><line x1="1001.2435826296805" y1="-563.9714027085464" x2="760" y2="178.5" stroke-width="16" stroke="#0a4e42ff"/><line x1="1092.3976466551671" y1="-527.8809556451156" x2="760" y2="178.5" stroke-width="16" stroke="#10816dff"/><line x1="1178.3096012281721" y1="-480.650458939632" x2="760" y2="178.5" stroke-width="16" stroke="#17b498ff"/><line x1="1257.6245635037658" y1="-423.0247657392724" x2="760" y2="178.5" stroke-width="16" stroke="#1ee7c3ff"/><line x1="1329.0916891463999" y1="-355.91266764972704" x2="760" y2="178.5" stroke-width="16" stroke="#0a4e42ff"/><line x1="1391.5838988922983" y1="-280.372562548692" x2="760" y2="178.5" stroke-width="16" stroke="#10816dff"/><line x1="1444.1156532627315" y1="-197.59576301908277" x2="760" y2="178.5" stroke-width="16" stroke="#17b498ff"/><line x1="1485.8584951103298" y1="-108.88770863794326" x2="760" y2="178.5" stroke-width="16" stroke="#1ee7c3ff"/><line x1="1516.1541148831907" y1="-15.647378414487775" x2="760" y2="178.5" stroke-width="16" stroke="#0a4e42ff"/><line x1="1534.5247325597707" y1="80.65477194458639" x2="760" y2="178.5" stroke-width="16" stroke="#10816dff"/><line x1="1540.6806325252344" y1="178.5000000000005" x2="760" y2="178.5" stroke-width="16" stroke="#17b498ff"/></g><defs><filter id="SvgjsFilter1081"><feTurbulence id="SvgjsFeTurbulence1079" result="SvgjsFeTurbulence1079" in="SourceGraphic" type="fractalNoise" stitchTiles="stitch" seed="78" numOctaves="1" baseFrequency="0.02"/><feDisplacementMap id="SvgjsFeDisplacementMap1080" result="SvgjsFeDisplacementMap1080" in="SourceGraphic" scale="200" in2="turbulence"/></filter></defs></svg>