<svg width="101" height="101" viewBox="0 0 101 101" fill="none" xmlns="http://www.w3.org/2000/svg">
<path d="M36.7396 18.14C21.5692 32.8363 14.4581 48.4808 14.4581 62.4659C14.4581 73.8437 22.9914 82.14 31.5248 82.14C39.11 82.14 45.2729 75.977 45.2729 68.3919C45.2729 58.6733 38.1618 53.6956 27.7322 53.6956C27.7322 42.0808 31.2877 35.2067 42.4285 23.8289L36.7396 18.14ZM76.3248 18.14C61.1544 32.8363 54.0433 48.4808 54.0433 62.4659C54.0433 73.8437 62.5766 82.14 71.11 82.14C78.6951 82.14 84.8581 75.977 84.8581 68.3919C84.8581 58.6733 77.747 53.6956 67.3174 53.6956C67.3174 42.0808 70.8729 35.2067 82.0137 23.8289L76.3248 18.14Z" fill="white"/>
</svg>
